<svg version="1.1" viewBox="0.0 0.0 469.0 229.0" fill="none" stroke="none" stroke-linecap="square" stroke-miterlimit="10" width="469" height="229" xmlns:xlink="http://www.w3.org/1999/xlink" xmlns="http://www.w3.org/2000/svg"><path fill="#ffffff" fill-opacity="0.0" d="M0 0L469.0 0L469.0 229.0L0 229.0L0 0Z" fill-rule="nonzero"/><clipPath id="id_0"><path d="M38.45 18.45L457.55 18.45L457.55 196.55L38.45 196.55L38.45 18.45Z" clip-rule="nonzero"/></clipPath><path fill="#9d9794" clip-path="url(#id_0)" d="M124.0 18.0L124.0 179.0L111.0 192.0L111.0 31.0Z" fill-rule="nonzero"/><path fill="#f5ede9" clip-path="url(#id_0)" d="M111.0 31.0L60.0 31.0L73.0 18.0L124.0 18.0Z" fill-rule="nonzero"/><path stroke="#000000" stroke-width="2.0" stroke-linecap="butt" stroke-opacity="0.0" clip-path="url(#id_0)" d="M111.0 192.0L60.0 192.0L60.0 31.0L111.0 31.0Z" fill-rule="nonzero"/><path fill="#f2e9e4" clip-path="url(#id_0)" d="M111.0 192.0L60.0 192.0L60.0 31.0L111.0 31.0Z" fill-rule="nonzero"/><path fill="#9d9794" clip-path="url(#id_0)" d="M202.0 58.0L202.0 179.0L189.0 192.0L189.0 71.0Z" fill-rule="nonzero"/><path fill="#f5ede9" clip-path="url(#id_0)" d="M189.0 71.0L138.0 71.0L151.0 58.0L202.0 58.0Z" fill-rule="nonzero"/><path stroke="#000000" stroke-width="2.0" stroke-linecap="butt" stroke-opacity="0.0" clip-path="url(#id_0)" d="M189.0 192.0L138.0 192.0L138.0 71.0L189.0 71.0Z" fill-rule="nonzero"/><path fill="#f2e9e4" clip-path="url(#id_0)" d="M189.0 192.0L138.0 192.0L138.0 71.0L189.0 71.0Z" fill-rule="nonzero"/><path fill="#9d9794" clip-path="url(#id_0)" d="M281.0 38.0L281.0 179.0L268.0 192.0L268.0 51.0Z" fill-rule="nonzero"/><path fill="#f5ede9" clip-path="url(#id_0)" d="M268.0 51.0L217.0 51.0L230.0 38.0L281.0 38.0Z" fill-rule="nonzero"/><path stroke="#000000" stroke-width="2.0" stroke-linecap="butt" stroke-opacity="0.0" clip-path="url(#id_0)" d="M268.0 192.0L217.0 192.0L217.0 51.0L268.0 51.0Z" fill-rule="nonzero"/><path fill="#f2e9e4" clip-path="url(#id_0)" d="M268.0 192.0L217.0 192.0L217.0 51.0L268.0 51.0Z" fill-rule="nonzero"/><path fill="#9d9794" clip-path="url(#id_0)" d="M359.0 38.0L359.0 179.0L346.0 192.0L346.0 51.0Z" fill-rule="nonzero"/><path fill="#f5ede9" clip-path="url(#id_0)" d="M346.0 51.0L295.0 51.0L308.0 38.0L359.0 38.0Z" fill-rule="nonzero"/><path stroke="#000000" stroke-width="2.0" stroke-linecap="butt" stroke-opacity="0.0" clip-path="url(#id_0)" d="M346.0 192.0L295.0 192.0L295.0 51.0L346.0 51.0Z" fill-rule="nonzero"/><path fill="#f2e9e4" clip-path="url(#id_0)" d="M346.0 192.0L295.0 192.0L295.0 51.0L346.0 51.0Z" fill-rule="nonzero"/><path fill="#9d9794" clip-path="url(#id_0)" d="M437.0 119.0L437.0 179.0L424.0 192.0L424.0 132.0Z" fill-rule="nonzero"/><path fill="#f5ede9" clip-path="url(#id_0)" d="M424.0 132.0L373.0 132.0L386.0 119.0L437.0 119.0Z" fill-rule="nonzero"/><path stroke="#000000" stroke-width="2.0" stroke-linecap="butt" stroke-opacity="0.0" clip-path="url(#id_0)" d="M424.0 192.0L373.0 192.0L373.0 132.0L424.0 132.0Z" fill-rule="nonzero"/><path fill="#f2e9e4" clip-path="url(#id_0)" d="M424.0 192.0L373.0 192.0L373.0 132.0L424.0 132.0Z" fill-rule="nonzero"/><path fill="#f2e9e4" d="M26.29375 179.7375Q26.29375 178.64375 26.621876 177.51875Q26.95 176.39375 27.340626 175.72188Q27.746876 175.05 28.16875 174.675Q28.60625 174.28438 29.0125 174.1125Q29.434376 173.925 29.934376 173.925Q30.91875 173.925 31.575 174.65938Q32.23125 175.39375 32.23125 176.76875Q32.23125 178.19063 31.778126 179.59688Q31.246876 181.2375 30.278126 182.06563Q29.54375 182.69063 28.590626 182.69063Q27.6375 182.69063 26.965626 181.94063Q26.29375 181.175 26.29375 179.7375ZM27.325 180.00313Q27.325 180.78438 27.590626 181.2375Q27.95 181.84688 28.653126 181.84688Q29.2625 181.84688 29.7625 181.3Q30.496876 180.50313 30.85625 179.00313Q31.23125 177.4875 31.23125 176.51875Q31.23125 175.59688 30.871876 175.19063Q30.5125 174.76875 29.934376 174.76875Q29.5125 174.76875 29.1375 174.9875Q28.778126 175.20625 28.45 175.7375Q27.98125 176.47188 27.621876 177.95625Q27.325 179.22188 27.325 180.00313Z" fill-rule="nonzero"/><path fill="#f2e9e4" d="M19.153126 142.525Q19.325 141.75937 19.60625 141.24374Q19.903126 140.7125 20.371876 140.25937Q20.85625 139.79062 22.23125 138.69687Q23.059376 138.025 23.371876 137.7125Q23.809376 137.25937 24.0125 136.82187Q24.1375 136.525 24.1375 136.16562Q24.1375 135.57187 23.715626 135.16562Q23.309376 134.74374 22.7 134.74374Q22.090626 134.74374 21.6375 135.16562Q21.184376 135.5875 20.996876 136.50937L19.95 136.35312Q20.10625 135.2125 20.840626 134.55624Q21.575 133.9 22.66875 133.9Q23.403126 133.9 23.996876 134.2125Q24.590626 134.50937 24.8875 135.05624Q25.2 135.60312 25.2 136.19687Q25.2 137.05624 24.590626 137.8375Q24.215626 138.3375 22.3875 139.775Q21.590626 140.4 21.2 140.80624Q20.825 141.19687 20.6375 141.55624L24.48125 141.55624L24.278126 142.525L19.153126 142.525ZM26.29375 139.7125Q26.29375 138.61874 26.621876 137.49374Q26.95 136.36874 27.340626 135.69687Q27.746876 135.025 28.16875 134.65Q28.60625 134.25937 29.0125 134.0875Q29.434376 133.9 29.934376 133.9Q30.91875 133.9 31.575 134.63437Q32.23125 135.36874 32.23125 136.74374Q32.23125 138.16562 31.778126 139.57187Q31.246876 141.2125 30.278126 142.04062Q29.54375 142.66562 28.590626 142.66562Q27.6375 142.66562 26.965626 141.91562Q26.29375 141.15 26.29375 139.7125ZM27.325 139.97812Q27.325 140.75937 27.590626 141.2125Q27.95 141.82187 28.653126 141.82187Q29.2625 141.82187 29.7625 141.275Q30.496876 140.47812 30.85625 138.97812Q31.23125 137.4625 31.23125 136.49374Q31.23125 135.57187 30.871876 135.16562Q30.5125 134.74374 29.934376 134.74374Q29.5125 134.74374 29.1375 134.9625Q28.778126 135.18124 28.45 135.7125Q27.98125 136.44687 27.621876 137.93124Q27.325 139.19687 27.325 139.97812Z" fill-rule="nonzero"/><path fill="#f2e9e4" d="M22.04375 102.5L22.496876 100.3125L18.996876 100.3125L19.215626 99.265625L24.028126 93.90625L24.903126 93.90625L23.746876 99.375L24.965626 99.375L24.7625 100.3125L23.559376 100.3125L23.090626 102.5L22.04375 102.5ZM22.7 99.375L23.45 95.78125L20.246876 99.375L22.7 99.375ZM26.29375 99.6875Q26.29375 98.59375 26.621876 97.46875Q26.95 96.34375 27.340626 95.671875Q27.746876 95.0 28.16875 94.625Q28.60625 94.234375 29.0125 94.0625Q29.434376 93.875 29.934376 93.875Q30.91875 93.875 31.575 94.609375Q32.23125 95.34375 32.23125 96.71875Q32.23125 98.140625 31.778126 99.546875Q31.246876 101.1875 30.278126 102.015625Q29.54375 102.640625 28.590626 102.640625Q27.6375 102.640625 26.965626 101.890625Q26.29375 101.125 26.29375 99.6875ZM27.325 99.953125Q27.325 100.734375 27.590626 101.1875Q27.95 101.796875 28.653126 101.796875Q29.2625 101.796875 29.7625 101.25Q30.496876 100.453125 30.85625 98.953125Q31.23125 97.4375 31.23125 96.46875Q31.23125 95.546875 30.871876 95.140625Q30.5125 94.71875 29.934376 94.71875Q29.5125 94.71875 29.1375 94.9375Q28.778126 95.15625 28.45 95.6875Q27.98125 96.421875 27.621876 97.90625Q27.325 99.171875 27.325 99.953125Z" fill-rule="nonzero"/><path fill="#f2e9e4" d="M20.871876 57.490623Q21.309376 57.13125 21.746876 56.94375Q22.2 56.75625 22.621876 56.75625Q23.60625 56.75625 24.246876 57.428123Q24.8875 58.084373 24.8875 59.225Q24.8875 60.678123 23.934376 61.725Q23.121876 62.615623 21.95 62.615623Q20.871876 62.615623 20.153126 61.834373Q19.45 61.053123 19.45 59.615623Q19.45 58.31875 19.903126 56.928123Q20.2625 55.865623 20.778126 55.178123Q21.29375 54.490623 21.871876 54.178123Q22.465626 53.85 23.2 53.85Q24.075 53.85 24.621876 54.396873Q25.184376 54.94375 25.2625 55.959373L24.278126 56.053123Q24.2 55.365623 23.8875 55.053123Q23.575 54.740623 23.121876 54.740623Q22.653126 54.740623 22.16875 55.115623Q21.684376 55.475 21.340626 56.209373Q20.996876 56.928123 20.871876 57.490623ZM20.496876 60.053123Q20.496876 60.7875 20.95 61.2875Q21.403126 61.771873 21.965626 61.771873Q22.371876 61.771873 22.809376 61.475Q23.2625 61.178123 23.559376 60.56875Q23.871876 59.94375 23.871876 59.334373Q23.871876 58.553123 23.434376 58.084373Q23.0125 57.6 22.403126 57.6Q21.7 57.6 21.090626 58.2875Q20.496876 58.975 20.496876 60.053123ZM26.29375 59.6625Q26.29375 58.56875 26.621876 57.44375Q26.95 56.31875 27.340626 55.646873Q27.746876 54.975 28.16875 54.6Q28.60625 54.209373 29.0125 54.0375Q29.434376 53.85 29.934376 53.85Q30.91875 53.85 31.575 54.584373Q32.23125 55.31875 32.23125 56.69375Q32.23125 58.115623 31.778126 59.521873Q31.246876 61.1625 30.278126 61.990623Q29.54375 62.615623 28.590626 62.615623Q27.6375 62.615623 26.965626 61.865623Q26.29375 61.1 26.29375 59.6625ZM27.325 59.928123Q27.325 60.709373 27.590626 61.1625Q27.95 61.771873 28.653126 61.771873Q29.2625 61.771873 29.7625 61.225Q30.496876 60.428123 30.85625 58.928123Q31.23125 57.4125 31.23125 56.44375Q31.23125 55.521873 30.871876 55.115623Q30.5125 54.69375 29.934376 54.69375Q29.5125 54.69375 29.1375 54.9125Q28.778126 55.13125 28.45 55.6625Q27.98125 56.396873 27.621876 57.88125Q27.325 59.146873 27.325 59.928123Z" fill-rule="nonzero"/><path fill="#f2e9e4" d="M21.153126 17.73125Q20.684376 17.465626 20.434376 17.059376Q20.2 16.6375 20.2 16.16875Q20.2 15.387501 20.7625 14.715626Q21.5125 13.825001 22.79375 13.825001Q23.91875 13.825001 24.575 14.434376Q25.23125 15.043751 25.23125 15.918751Q25.23125 16.54375 24.871876 17.04375Q24.528126 17.54375 23.778126 17.85625Q24.29375 18.16875 24.5125 18.528126Q24.79375 19.0125 24.79375 19.6375Q24.79375 20.79375 23.98125 21.7Q23.16875 22.60625 21.809376 22.60625Q20.715626 22.60625 20.028126 21.934376Q19.340626 21.2625 19.340626 20.2625Q19.340626 19.325 19.825 18.653126Q20.325 17.965626 21.153126 17.73125ZM21.246876 16.215626Q21.246876 16.7625 21.590626 17.10625Q21.95 17.434376 22.575 17.434376Q23.29375 17.434376 23.746876 16.996876Q24.2 16.54375 24.2 15.903126Q24.2 15.356251 23.840626 15.012501Q23.496876 14.668751 22.871876 14.668751Q22.403126 14.668751 22.0125 14.887501Q21.621876 15.106251 21.434376 15.481251Q21.246876 15.856251 21.246876 16.215626ZM20.41875 20.35625Q20.41875 20.715626 20.590626 21.04375Q20.7625 21.371876 21.10625 21.559376Q21.465626 21.746876 21.91875 21.746876Q22.778126 21.746876 23.309376 20.95Q23.73125 20.309376 23.73125 19.575Q23.73125 18.98125 23.340626 18.60625Q22.95 18.215626 22.325 18.215626Q21.528126 18.215626 20.965626 18.809376Q20.41875 19.403126 20.41875 20.35625ZM26.29375 19.6375Q26.29375 18.54375 26.621876 17.41875Q26.95 16.29375 27.340626 15.621876Q27.746876 14.950001 28.16875 14.575001Q28.60625 14.184376 29.0125 14.012501Q29.434376 13.825001 29.934376 13.825001Q30.91875 13.825001 31.575 14.559376Q32.23125 15.293751 32.23125 16.66875Q32.23125 18.090626 31.778126 19.496876Q31.246876 21.1375 30.278126 21.965626Q29.54375 22.590626 28.590626 22.590626Q27.6375 22.590626 26.965626 21.840626Q26.29375 21.075 26.29375 19.6375ZM27.325 19.903126Q27.325 20.684376 27.590626 21.1375Q27.95 21.746876 28.653126 21.746876Q29.2625 21.746876 29.7625 21.2Q30.496876 20.403126 30.85625 18.903126Q31.23125 17.3875 31.23125 16.41875Q31.23125 15.496876 30.871876 15.090626Q30.5125 14.668751 29.934376 14.668751Q29.5125 14.668751 29.1375 14.887501Q28.778126 15.106251 28.45 15.637501Q27.98125 16.371876 27.621876 17.85625Q27.325 19.121876 27.325 19.903126Z" fill-rule="nonzero"/><path fill="#f2e9e4" d="M76.03023 214.55L74.28023 214.55L74.28023 210.89375L70.84273 210.89375L70.84273 214.55L69.09273 214.55L69.09273 206.01875L70.84273 206.01875L70.84273 209.47188L74.28023 209.47188L74.28023 206.01875L76.03023 206.01875L76.03023 214.55ZM83.5146 207.44063L80.90523 207.44063L80.90523 214.55L79.1396 214.55L79.1396 207.44063L76.56148 207.44063L76.56148 206.01875L83.5146 206.01875L83.5146 207.44063ZM86.3896 206.01875L88.5771 212.20625L90.7646 206.01875L93.06148 206.01875L93.06148 214.55L91.29585 214.55L91.29585 212.22188L91.48335 208.19063L89.17085 214.55L87.96773 214.55L85.67085 208.19063L85.84273 212.22188L85.84273 214.55L84.09273 214.55L84.09273 206.01875L86.3896 206.01875ZM96.84273 213.14375L100.5771 213.14375L100.5771 214.55L95.09273 214.55L95.09273 206.01875L96.84273 206.01875L96.84273 213.14375Z" fill-rule="nonzero"/><path fill="#f2e9e4" d="M159.61668 211.70625Q159.52293 213.08125 158.60106 213.87813Q157.69481 214.675 156.19481 214.675Q154.55418 214.675 153.60106 213.56563Q152.66356 212.45625 152.66356 210.53438L152.66356 210.00313Q152.66356 208.78438 153.10106 207.84688Q153.53856 206.90938 154.33543 206.40938Q155.14793 205.89375 156.21043 205.89375Q157.69481 205.89375 158.58543 206.69063Q159.49168 207.4875 159.63231 208.90938L157.88231 208.90938Q157.81981 208.08125 157.41356 207.72188Q157.02293 207.34688 156.21043 207.34688Q155.33543 207.34688 154.89793 207.97188Q154.46043 208.59688 154.44481 209.925L154.44481 210.56563Q154.44481 211.95625 154.86668 212.59688Q155.28856 213.2375 156.19481 213.2375Q157.00731 213.2375 157.39793 212.8625Q157.80418 212.4875 157.86668 211.70625L159.61668 211.70625ZM165.35106 212.31563Q165.35106 211.81563 164.99168 211.55Q164.64793 211.28438 163.72606 210.9875Q162.81981 210.69063 162.28856 210.39375Q160.83543 209.6125 160.83543 208.28438Q160.83543 207.59688 161.22606 207.05Q161.61668 206.50313 162.33543 206.20625Q163.06981 205.89375 163.97606 205.89375Q164.89793 205.89375 165.60106 206.2375Q166.31981 206.56563 166.71043 207.175Q167.11668 207.76875 167.11668 208.53438L165.35106 208.53438Q165.35106 207.95625 164.97606 207.62813Q164.61668 207.3 163.94481 207.3Q163.30418 207.3 162.94481 207.58125Q162.58543 207.84688 162.58543 208.28438Q162.58543 208.70625 163.00731 208.9875Q163.42918 209.26875 164.24168 209.51875Q165.74168 209.97188 166.42918 210.64375Q167.11668 211.3 167.11668 212.3Q167.11668 213.40938 166.27293 214.05Q165.44481 214.675 164.02293 214.675Q163.03856 214.675 162.22606 214.31563Q161.41356 213.94063 160.99168 213.31563Q160.56981 212.69063 160.56981 211.8625L162.33543 211.8625Q162.33543 213.28438 164.02293 213.28438Q164.64793 213.28438 164.99168 213.03438Q165.35106 212.76875 165.35106 212.31563ZM172.35106 212.31563Q172.35106 211.81563 171.99168 211.55Q171.64793 211.28438 170.72606 210.9875Q169.81981 210.69063 169.28856 210.39375Q167.83543 209.6125 167.83543 208.28438Q167.83543 207.59688 168.22606 207.05Q168.61668 206.50313 169.33543 206.20625Q170.06981 205.89375 170.97606 205.89375Q171.89793 205.89375 172.60106 206.2375Q173.31981 206.56563 173.71043 207.175Q174.11668 207.76875 174.11668 208.53438L172.35106 208.53438Q172.35106 207.95625 171.97606 207.62813Q171.61668 207.3 170.94481 207.3Q170.30418 207.3 169.94481 207.58125Q169.58543 207.84688 169.58543 208.28438Q169.58543 208.70625 170.00731 208.9875Q170.42918 209.26875 171.24168 209.51875Q172.74168 209.97188 173.42918 210.64375Q174.11668 211.3 174.11668 212.3Q174.11668 213.40938 173.27293 214.05Q172.44481 214.675 171.02293 214.675Q170.03856 214.675 169.22606 214.31563Q168.41356 213.94063 167.99168 213.31563Q167.56981 212.69063 167.56981 211.8625L169.33543 211.8625Q169.33543 213.28438 171.02293 213.28438Q171.64793 213.28438 171.99168 213.03438Q172.35106 212.76875 172.35106 212.31563Z" fill-rule="nonzero"/><path fill="#f2e9e4" d="M221.01562 211.55L221.01562 214.55L219.26562 214.55L219.26562 206.01875L222.59375 206.01875Q223.54688 206.01875 224.28125 206.37813Q225.01562 206.72188 225.40625 207.37813Q225.79688 208.01875 225.79688 208.84688Q225.79688 210.09688 224.9375 210.83125Q224.07812 211.55 222.5625 211.55L221.01562 211.55ZM221.01562 210.1125L222.59375 210.1125Q223.28125 210.1125 223.64062 209.78438Q224.01562 209.45625 224.01562 208.84688Q224.01562 208.22188 223.64062 207.84688Q223.28125 207.45625 222.625 207.44063L221.01562 207.44063L221.01562 210.1125ZM230.20312 209.8625L231.98438 206.01875L233.90625 206.01875L231.09375 211.45625L231.09375 214.55L229.3125 214.55L229.3125 211.45625L226.51562 206.01875L228.4375 206.01875L230.20312 209.8625ZM240.6875 207.44063L238.07812 207.44063L238.07812 214.55L236.3125 214.55L236.3125 207.44063L233.73438 207.44063L233.73438 206.01875L240.6875 206.01875L240.6875 207.44063ZM248.20312 214.55L246.45312 214.55L246.45312 210.89375L243.01562 210.89375L243.01562 214.55L241.26562 214.55L241.26562 206.01875L243.01562 206.01875L243.01562 209.47188L246.45312 209.47188L246.45312 206.01875L248.20312 206.01875L248.20312 214.55ZM256.26562 210.47188Q256.26562 211.7375 255.8125 212.69063Q255.375 213.62813 254.54688 214.15938Q253.71875 214.675 252.65625 214.675Q251.59375 214.675 250.75 214.15938Q249.92188 213.64375 249.46875 212.70625Q249.01562 211.75313 249.0 210.51875L249.0 210.09688Q249.0 208.84688 249.45312 207.89375Q249.90625 206.925 250.73438 206.40938Q251.57812 205.89375 252.64062 205.89375Q253.70312 205.89375 254.53125 206.40938Q255.35938 206.925 255.8125 207.89375Q256.26562 208.84688 256.26562 210.09688L256.26562 210.47188ZM254.48438 210.09688Q254.48438 208.75313 254.0 208.05Q253.53125 207.34688 252.64062 207.34688Q251.75 207.34688 251.26562 208.05Q250.79688 208.7375 250.78125 210.06563L250.78125 210.47188Q250.78125 211.78438 251.26562 212.50313Q251.75 213.22188 252.65625 213.22188Q253.53125 213.22188 254.0 212.53438Q254.48438 211.83125 254.48438 210.50313L254.48438 210.09688ZM264.20312 214.55L262.4375 214.55L259.01562 208.94063L259.01562 214.55L257.26562 214.55L257.26562 206.01875L259.01562 206.01875L262.45312 211.64375L262.45312 206.01875L264.20312 206.01875L264.20312 214.55Z" fill-rule="nonzero"/><path fill="#f2e9e4" d="M298.85208 211.55L298.85208 214.55L297.10208 214.55L297.10208 206.01875L300.4302 206.01875Q301.38333 206.01875 302.1177 206.37813Q302.85208 206.72188 303.2427 207.37813Q303.63333 208.01875 303.63333 208.84688Q303.63333 210.09688 302.77396 210.83125Q301.91458 211.55 300.39896 211.55L298.85208 211.55ZM298.85208 210.1125L300.4302 210.1125Q301.1177 210.1125 301.47708 209.78438Q301.85208 209.45625 301.85208 208.84688Q301.85208 208.22188 301.47708 207.84688Q301.1177 207.45625 300.46146 207.44063L298.85208 207.44063L298.85208 210.1125ZM308.25833 211.425L306.85208 211.425L306.85208 214.55L305.10208 214.55L305.10208 206.01875L308.27396 206.01875Q309.77396 206.01875 310.58646 206.69063Q311.41458 207.3625 311.41458 208.59688Q311.41458 209.47188 311.03958 210.05Q310.66458 210.62813 309.89896 210.9875L311.7427 214.47188L311.7427 214.55L309.85208 214.55L308.25833 211.425ZM306.85208 210.00313L308.27396 210.00313Q308.9302 210.00313 309.28958 209.675Q309.66458 209.33125 309.66458 208.7375Q309.66458 208.12813 309.32083 207.78438Q308.97708 207.44063 308.27396 207.44063L306.85208 207.44063L306.85208 210.00313ZM320.10208 210.47188Q320.10208 211.7375 319.64896 212.69063Q319.21146 213.62813 318.38333 214.15938Q317.5552 214.675 316.4927 214.675Q315.4302 214.675 314.58646 214.15938Q313.75833 213.64375 313.3052 212.70625Q312.85208 211.75313 312.83646 210.51875L312.83646 210.09688Q312.83646 208.84688 313.28958 207.89375Q313.7427 206.925 314.57083 206.40938Q315.41458 205.89375 316.47708 205.89375Q317.53958 205.89375 318.3677 206.40938Q319.19583 206.925 319.64896 207.89375Q320.10208 208.84688 320.10208 210.09688L320.10208 210.47188ZM318.32083 210.09688Q318.32083 208.75313 317.83646 208.05Q317.3677 207.34688 316.47708 207.34688Q315.58646 207.34688 315.10208 208.05Q314.63333 208.7375 314.6177 210.06563L314.6177 210.47188Q314.6177 211.78438 315.10208 212.50313Q315.58646 213.22188 316.4927 213.22188Q317.3677 213.22188 317.83646 212.53438Q318.32083 211.83125 318.32083 210.50313L318.32083 210.09688ZM322.85208 213.14375L326.58646 213.14375L326.58646 214.55L321.10208 214.55L321.10208 206.01875L322.85208 206.01875L322.85208 213.14375ZM335.10208 210.47188Q335.10208 211.7375 334.64896 212.69063Q334.21146 213.62813 333.38333 214.15938Q332.5552 214.675 331.4927 214.675Q330.4302 214.675 329.58646 214.15938Q328.75833 213.64375 328.3052 212.70625Q327.85208 211.75313 327.83646 210.51875L327.83646 210.09688Q327.83646 208.84688 328.28958 207.89375Q328.7427 206.925 329.57083 206.40938Q330.41458 205.89375 331.47708 205.89375Q332.53958 205.89375 333.3677 206.40938Q334.19583 206.925 334.64896 207.89375Q335.10208 208.84688 335.10208 210.09688L335.10208 210.47188ZM333.32083 210.09688Q333.32083 208.75313 332.83646 208.05Q332.3677 207.34688 331.47708 207.34688Q330.58646 207.34688 330.10208 208.05Q329.63333 208.7375 329.6177 210.06563L329.6177 210.47188Q329.6177 211.78438 330.10208 212.50313Q330.58646 213.22188 331.4927 213.22188Q332.3677 213.22188 332.83646 212.53438Q333.32083 211.83125 333.32083 210.50313L333.32083 210.09688ZM342.85208 213.47188Q342.3677 214.03438 341.4927 214.3625Q340.63333 214.675 339.58646 214.675Q338.47708 214.675 337.63333 214.19063Q336.8052 213.70625 336.35208 212.78438Q335.89896 211.8625 335.88333 210.6125L335.88333 210.03438Q335.88333 208.75313 336.3052 207.83125Q336.7427 206.89375 337.5552 206.39375Q338.3677 205.89375 339.46146 205.89375Q340.97708 205.89375 341.83646 206.62813Q342.69583 207.34688 342.85208 208.7375L341.13333 208.7375Q341.02396 208.00313 340.6177 207.65938Q340.21146 207.31563 339.50833 207.31563Q338.6177 207.31563 338.14896 207.9875Q337.6802 208.65938 337.6802 210.00313L337.6802 210.53438Q337.6802 211.87813 338.1802 212.56563Q338.69583 213.25313 339.6802 213.25313Q340.66458 213.25313 341.08646 212.83125L341.08646 211.3625L339.4927 211.3625L339.4927 210.06563L342.85208 210.06563L342.85208 213.47188Z" fill-rule="nonzero"/><path fill="#f2e9e4" d="M401.626 211.70625Q401.53226 213.08125 400.61038 213.87813Q399.70413 214.675 398.20413 214.675Q396.5635 214.675 395.61038 213.56563Q394.67288 212.45625 394.67288 210.53438L394.67288 210.00313Q394.67288 208.78438 395.11038 207.84688Q395.54788 206.90938 396.34476 206.40938Q397.15726 205.89375 398.21976 205.89375Q399.70413 205.89375 400.59476 206.69063Q401.501 207.4875 401.64163 208.90938L399.89163 208.90938Q399.82913 208.08125 399.42288 207.72188Q399.03226 207.34688 398.21976 207.34688Q397.34476 207.34688 396.90726 207.97188Q396.46976 208.59688 396.45413 209.925L396.45413 210.56563Q396.45413 211.95625 396.876 212.59688Q397.29788 213.2375 398.20413 213.2375Q399.01663 213.2375 399.40726 212.8625Q399.8135 212.4875 399.876 211.70625L401.626 211.70625Z" fill-rule="nonzero"/></svg>